<?xml version="1.0" encoding="utf-8"?><svg xmlns="http://www.w3.org/2000/svg" xmlns:xlink="http://www.w3.org/1999/xlink" width="1848" height="979" preserveAspectRatio="xMidYMid" viewBox="0 0 1848 979" style="z-index:1;display:block;background-color:rgb(255, 255, 255);animation-play-state:paused" ><g transform="translate(924,489.5) scale(1,1) translate(-924,-489.5)" style="animation-play-state:paused" ><defs style="animation-play-state:paused" ><linearGradient id="ldbk-photon-4ciprgpin9t-lg" x1="899" x2="1848" y1="0" y2="0" gradientUnits="userSpaceOnUse" style="animation-play-state:paused" ><stop stop-color="#1d3f72" offset="0" style="animation-play-state:paused" ></stop>

    
<stop stop-color="#34ffef" offset="1" style="animation-play-state:paused" ></stop></linearGradient>

  
<mask id="ldbk-photon-4ciprgpin9t-mask" style="animation-play-state:paused" ><g style="animation-play-state:paused" ><path d="M2148 -0.5 L929.870026286508 -0.5 A15 15 0 0 1 929.870026286508 30.5 L2148 30.5" fill="#fff" transform="matrix(1,0,0,1,49.4530143737793,0)" style="animation-play-state:paused" ></path>
<path d="M1899.7466172838836 -0.5 L1921.493234567767 -0.5 A15 15 0 0 1 1921.493234567767 30.5 L1899.7466172838836 30.5 A15 15 0 0 1 1899.7466172838836 -0.5" fill="#000" transform="matrix(1,0,0,1,0,0)" opacity="1" style="animation-play-state:paused" ></path>
<path d="M2148 29.5 L896.5976176627545 29.5 A15 15 0 0 0 896.5976176627545 60.5 L2148 60.5" fill="#fff" transform="matrix(1,0,0,1,-33.502506256103516,0)" style="animation-play-state:paused" ></path>
<path d="M948.6259882293285 29.5 L982.0695916274542 29.5 A15 15 0 0 1 982.0695916274542 60.5 L948.6259882293285 60.5 A15 15 0 0 1 948.6259882293285 29.5" fill="#fff" transform="matrix(1,0,0,1,0,0)" opacity="1" style="animation-play-state:paused" ></path>
<path d="M2148 59.5 L915.6715975153083 59.5 A15 15 0 0 1 915.6715975153083 90.5 L2148 90.5" fill="#fff" transform="matrix(1,0,0,1,23.805051803588867,0)" style="animation-play-state:paused" ></path>
<path d="M1904.160919778214 59.5 L1930.3218395564281 59.5 A15 15 0 0 1 1930.3218395564281 90.5 L1904.160919778214 90.5 A15 15 0 0 1 1904.160919778214 59.5" fill="#000" transform="matrix(1,0,0,1,-588.3825073242188,0)" opacity="0.909143" style="opacity:0.909143;animation-play-state:paused" ></path>
<path d="M2148 89.5 L879.0037506425929 89.5 A15 15 0 0 0 879.0037506425929 120.5 L2148 120.5" fill="#fff" transform="matrix(1,0,0,1,-0.3148346543312073,0)" style="animation-play-state:paused" ></path>
<path d="M958.1507186626634 89.5 L992.194605891997 89.5 A15 15 0 0 1 992.194605891997 120.5 L958.1507186626634 120.5 A15 15 0 0 1 958.1507186626634 89.5" fill="#fff" transform="matrix(1,0,0,1,0,0)" opacity="0.649429" style="opacity:0.649429;animation-play-state:paused" ></path>
<path d="M2148 119.5 L892.4776223832328 119.5 A15 15 0 0 1 892.4776223832328 150.5 L2148 150.5" fill="#fff" transform="matrix(1,0,0,1,19.64316177368164,0)" style="animation-play-state:paused" ></path>
<path d="M1888.8234580671935 119.5 L1899.646916134387 119.5 A15 15 0 0 1 1899.646916134387 150.5 L1888.8234580671935 150.5 A15 15 0 0 1 1888.8234580671935 119.5" fill="#000" transform="matrix(1,0,0,1,-590.0234375,0)" opacity="0.909143" style="opacity:0.909143;animation-play-state:paused" ></path>
<path d="M2148 149.5 L847.6846302345934 149.5 A15 15 0 0 0 847.6846302345934 180.5 L2148 180.5" fill="#fff" transform="matrix(1,0,0,1,-5.549508094787598,0)" style="animation-play-state:paused" ></path>
<path d="M974.335087294488 149.5 L1004.2459532541244 149.5 A15 15 0 0 1 1004.2459532541244 180.5 L974.335087294488 180.5 A15 15 0 0 1 974.335087294488 149.5" fill="#fff" transform="matrix(1,0,0,1,0,0)" opacity="0.909091" style="opacity:0.909091;animation-play-state:paused" ></path>
<path d="M2148 179.5 L863.4243305093358 179.5 A15 15 0 0 1 863.4243305093358 210.5 L2148 210.5" fill="#fff" transform="matrix(1,0,0,1,0.4641508162021637,0)" style="animation-play-state:paused" ></path>
<path d="M1915.534712808182 179.5 L1953.0694256163638 179.5 A15 15 0 0 1 1953.0694256163638 210.5 L1915.534712808182 210.5 A15 15 0 0 1 1915.534712808182 179.5" fill="#000" transform="matrix(1,0,0,1,-1071.91796875,0)" opacity="0.519052" style="opacity:0.519052;animation-play-state:paused" ></path>
<path d="M2148 209.5 L835.690065470497 209.5 A15 15 0 0 0 835.690065470497 240.5 L2148 240.5" fill="#fff" transform="matrix(1,0,0,1,-20.204517364501953,0)" style="animation-play-state:paused" ></path>
<path d="M968.3247424510774 209.5 L1006.578960205575 209.5 A15 15 0 0 1 1006.578960205575 240.5 L968.3247424510774 240.5 A15 15 0 0 1 968.3247424510774 209.5" fill="#fff" transform="matrix(1,0,0,1,0,0)" opacity="0.519429" style="opacity:0.519429;animation-play-state:paused" ></path>
<path d="M2148 239.5 L892.4474437468023 239.5 A15 15 0 0 1 892.4474437468023 270.5 L2148 270.5" fill="#fff" transform="matrix(1,0,0,1,0.5379632711410522,0)" style="animation-play-state:paused" ></path>
<path d="M1898.8454556965428 239.5 L1919.6909113930856 239.5 A15 15 0 0 1 1919.6909113930856 270.5 L1898.8454556965428 270.5 A15 15 0 0 1 1898.8454556965428 239.5" fill="#000" transform="matrix(1,0,0,1,-353.0130920410156,0)" opacity="1" style="animation-play-state:paused" ></path>
<path d="M2148 269.5 L858.688767894326 269.5 A15 15 0 0 0 858.688767894326 300.5 L2148 300.5" fill="#fff" transform="matrix(1,0,0,1,-29.174665451049805,0)" style="animation-play-state:paused" ></path>
<path d="M940.5442267055298 269.5 L978.6088431894491 269.5 A15 15 0 0 1 978.6088431894491 300.5 L940.5442267055298 300.5 A15 15 0 0 1 940.5442267055298 269.5" fill="#fff" transform="matrix(1,0,0,1,0,0)" opacity="0.778792" style="opacity:0.778792;animation-play-state:paused" ></path>
<path d="M2148 299.5 L869.8618876008239 299.5 A15 15 0 0 1 869.8618876008239 330.5 L2148 330.5" fill="#fff" transform="matrix(1,0,0,1,34.25133514404297,0)" style="animation-play-state:paused" ></path>
<path d="M1890.6518532983885 299.5 L1903.303706596777 299.5 A15 15 0 0 1 1903.303706596777 330.5 L1890.6518532983885 330.5 A15 15 0 0 1 1890.6518532983885 299.5" fill="#000" transform="matrix(1,0,0,1,-1247.697509765625,0)" opacity="0.259714" style="opacity:0.259714;animation-play-state:paused" ></path>
<path d="M2148 329.5 L839.9004171531471 329.5 A15 15 0 0 0 839.9004171531471 360.5 L2148 360.5" fill="#fff" transform="matrix(1,0,0,1,-34.21961975097656,0)" style="animation-play-state:paused" ></path>
<path d="M943.9975977362853 329.5 L961.3269007914051 329.5 A15 15 0 0 1 961.3269007914051 360.5 L943.9975977362853 360.5 A15 15 0 0 1 943.9975977362853 329.5" fill="#fff" transform="matrix(1,0,0,1,0,0)" opacity="1" style="animation-play-state:paused" ></path>
<path d="M2148 359.5 L889.91231987556 359.5 A15 15 0 0 1 889.91231987556 390.5 L2148 390.5" fill="#fff" transform="matrix(1,0,0,1,26.661712646484375,0)" style="animation-play-state:paused" ></path>
<path d="M1910.9021398696489 359.5 L1943.8042797392977 359.5 A15 15 0 0 1 1943.8042797392977 390.5 L1910.9021398696489 390.5 A15 15 0 0 1 1910.9021398696489 359.5" fill="#000" transform="matrix(1,0,0,1,-625.6884155273438,0)" opacity="1" style="animation-play-state:paused" ></path>
<path d="M2148 389.5 L860.8409748938346 389.5 A15 15 0 0 0 860.8409748938346 420.5 L2148 420.5" fill="#fff" transform="matrix(1,0,0,1,-0.4361927807331085,0)" style="animation-play-state:paused" ></path>
<path d="M939.5943110589752 389.5 L965.82341490357 389.5 A15 15 0 0 1 965.82341490357 420.5 L939.5943110589752 420.5 A15 15 0 0 1 939.5943110589752 389.5" fill="#fff" transform="matrix(1,0,0,1,0,0)" opacity="0.648922" style="opacity:0.648922;animation-play-state:paused" ></path>
<path d="M2148 419.5 L899.5738453250752 419.5 A15 15 0 0 1 899.5738453250752 450.5 L2148 450.5" fill="#fff" transform="matrix(1,0,0,1,0.4955637454986572,0)" style="animation-play-state:paused" ></path>
<path d="M1888.0101101797145 419.5 L1898.020220359429 419.5 A15 15 0 0 1 1898.020220359429 450.5 L1888.0101101797145 450.5 A15 15 0 0 1 1888.0101101797145 419.5" fill="#000" transform="matrix(1,0,0,1,-995.5574340820312,0)" opacity="0.649429" style="opacity:0.649429;animation-play-state:paused" ></path>
<path d="M2148 449.5 L851.031600041098 449.5 A15 15 0 0 0 851.031600041098 480.5 L2148 480.5" fill="#fff" transform="matrix(1,0,0,1,-16.972944259643555,0)" style="animation-play-state:paused" ></path>
<path d="M997.5586229113783 449.5 L1036.7084053291933 449.5 A15 15 0 0 1 1036.7084053291933 480.5 L997.5586229113783 480.5 A15 15 0 0 1 997.5586229113783 449.5" fill="#fff" transform="matrix(1,0,0,1,0,0)" opacity="1" style="animation-play-state:paused" ></path>
<path d="M2148 479.5 L928.6920816075141 479.5 A15 15 0 0 1 928.6920816075141 510.5 L2148 510.5" fill="#fff" transform="matrix(1,0,0,1,38.08309555053711,0)" style="animation-play-state:paused" ></path>
<path d="M1915.739738191152 479.5 L1953.4794763823038 479.5 A15 15 0 0 1 1953.4794763823038 510.5 L1915.739738191152 510.5 A15 15 0 0 1 1915.739738191152 479.5" fill="#000" transform="matrix(1,0,0,1,-1898.1202392578125,0)" opacity="0.13" style="opacity:0.13;animation-play-state:paused" ></path>
<path d="M2148 509.5 L855.371468397553 509.5 A15 15 0 0 0 855.371468397553 540.5 L2148 540.5" fill="#fff" transform="matrix(1,0,0,1,-38.44220733642578,0)" style="animation-play-state:paused" ></path>
<path d="M990.7280743956106 509.5 L1018.0731724661579 509.5 A15 15 0 0 1 1018.0731724661579 540.5 L990.7280743956106 540.5 A15 15 0 0 1 990.7280743956106 509.5" fill="#fff" transform="matrix(1,0,0,1,0,0)" opacity="0.518623" style="opacity:0.518623;animation-play-state:paused" ></path>
<path d="M2148 539.5 L940.3932295853557 539.5 A15 15 0 0 1 940.3932295853557 570.5 L2148 570.5" fill="#fff" transform="matrix(1,0,0,1,33.04960250854492,0)" style="animation-play-state:paused" ></path>
<path d="M1915.9722837494785 539.5 L1953.944567498957 539.5 A15 15 0 0 1 1953.944567498957 570.5 L1915.9722837494785 570.5 A15 15 0 0 1 1915.9722837494785 539.5" fill="#000" transform="matrix(1,0,0,1,-537.3258056640625,0)" opacity="1" style="animation-play-state:paused" ></path>
<path d="M2148 569.5 L908.3815987557872 569.5 A15 15 0 0 0 908.3815987557872 600.5 L2148 600.5" fill="#fff" transform="matrix(1,0,0,1,-20.355201721191406,0)" style="animation-play-state:paused" ></path>
<path d="M981.0391286650762 569.5 L1017.5578651554873 569.5 A15 15 0 0 1 1017.5578651554873 600.5 L981.0391286650762 600.5 A15 15 0 0 1 981.0391286650762 569.5" fill="#fff" transform="matrix(1,0,0,1,0,0)" opacity="0.779143" style="opacity:0.779143;animation-play-state:paused" ></path>
<path d="M2148 599.5 L943.8189368748186 599.5 A15 15 0 0 1 943.8189368748186 630.5 L2148 630.5" fill="#fff" transform="matrix(1,0,0,1,5.784001350402832,0)" style="animation-play-state:paused" ></path>
<path d="M1908.9137570193577 599.5 L1939.8275140387154 599.5 A15 15 0 0 1 1939.8275140387154 630.5 L1908.9137570193577 630.5 A15 15 0 0 1 1908.9137570193577 599.5" fill="#000" transform="matrix(1,0,0,1,-1377.4937744140625,0)" opacity="0.259714" style="opacity:0.259714;animation-play-state:paused" ></path>
<path d="M2148 629.5 L884.9284186115541 629.5 A15 15 0 0 0 884.9284186115541 660.5 L2148 660.5" fill="#fff" transform="matrix(1,0,0,1,-18.381006240844727,0)" style="animation-play-state:paused" ></path>
<path d="M1004.285730389446 629.5 L1034.8541845648301 629.5 A15 15 0 0 1 1034.8541845648301 660.5 L1004.285730389446 660.5 A15 15 0 0 1 1004.285730389446 629.5" fill="#fff" transform="matrix(1,0,0,1,0,0)" opacity="0.388753" style="opacity:0.388753;animation-play-state:paused" ></path>
<path d="M2148 659.5 L931.2933348677684 659.5 A15 15 0 0 1 931.2933348677684 690.5 L2148 690.5" fill="#fff" transform="matrix(1,0,0,1,40.918800354003906,0)" style="animation-play-state:paused" ></path>
<path d="M1909.1814055906889 659.5 L1940.3628111813778 659.5 A15 15 0 0 1 1940.3628111813778 690.5 L1909.1814055906889 690.5 A15 15 0 0 1 1909.1814055906889 659.5" fill="#000" transform="matrix(1,0,0,1,0,0)" opacity="1" style="animation-play-state:paused" ></path>
<path d="M2148 689.5 L908.7175270993736 689.5 A15 15 0 0 0 908.7175270993736 720.5 L2148 720.5" fill="#fff" transform="matrix(1,0,0,1,-12.595561981201172,0)" style="animation-play-state:paused" ></path>
<path d="M989.0004432074467 689.5 L1002.6295255227551 689.5 A15 15 0 0 1 1002.6295255227551 720.5 L989.0004432074467 720.5 A15 15 0 0 1 989.0004432074467 689.5" fill="#fff" transform="matrix(1,0,0,1,0,0)" opacity="1" style="animation-play-state:paused" ></path>
<path d="M2148 719.5 L956.8303571198279 719.5 A15 15 0 0 1 956.8303571198279 750.5 L2148 750.5" fill="#fff" transform="matrix(1,0,0,1,20.14866065979004,0)" style="animation-play-state:paused" ></path>
<path d="M1895.8443511190624 719.5 L1913.6887022381247 719.5 A15 15 0 0 1 1913.6887022381247 750.5 L1895.8443511190624 750.5 A15 15 0 0 1 1895.8443511190624 719.5" fill="#000" transform="matrix(1,0,0,1,-823.3596801757812,0)" opacity="0.909143" style="opacity:0.909143;animation-play-state:paused" ></path>
<path d="M2148 749.5 L910.5207116587119 749.5 A15 15 0 0 0 910.5207116587119 780.5 L2148 780.5" fill="#fff" transform="matrix(1,0,0,1,-0.4918566942214966,0)" style="animation-play-state:paused" ></path>
<path d="M1022.0932918146167 749.5 L1051.2180913664538 749.5 A15 15 0 0 1 1051.2180913664538 780.5 L1022.0932918146167 780.5 A15 15 0 0 1 1022.0932918146167 749.5" fill="#fff" transform="matrix(1,0,0,1,0,0)" opacity="0.649429" style="opacity:0.649429;animation-play-state:paused" ></path>
<path d="M2148 779.5 L932.6709563247994 779.5 A15 15 0 0 1 932.6709563247994 810.5 L2148 810.5" fill="#fff" transform="matrix(1,0,0,1,26.027498245239258,0)" style="animation-play-state:paused" ></path>
<path d="M1911.4925081029044 779.5 L1944.9850162058087 779.5 A15 15 0 0 1 1944.9850162058087 810.5 L1911.4925081029044 810.5 A15 15 0 0 1 1911.4925081029044 779.5" fill="#000" transform="matrix(1,0,0,1,-1289.5037841796875,0)" opacity="0.389714" style="opacity:0.389714;animation-play-state:paused" ></path>
<path d="M2148 809.5 L913.5043871250821 809.5 A15 15 0 0 0 913.5043871250821 840.5 L2148 840.5" fill="#fff" transform="matrix(1,0,0,1,-5.2242631912231445,0)" style="animation-play-state:paused" ></path>
<path d="M992.949428674812 809.5 L1029.6489287686402 809.5 A15 15 0 0 1 1029.6489287686402 840.5 L992.949428674812 840.5 A15 15 0 0 1 992.949428674812 809.5" fill="#fff" transform="matrix(1,0,0,1,0,0)" opacity="0.779286" style="opacity:0.779286;animation-play-state:paused" ></path>
<path d="M2148 839.5 L939.2393236082388 839.5 A15 15 0 0 1 939.2393236082388 870.5 L2148 870.5" fill="#fff" transform="matrix(1,0,0,1,4.931639194488525,0)" style="animation-play-state:paused" ></path>
<path d="M1901.1710162008424 839.5 L1924.3420324016847 839.5 A15 15 0 0 1 1924.3420324016847 870.5 L1901.1710162008424 870.5 A15 15 0 0 1 1901.1710162008424 839.5" fill="#000" transform="matrix(1,0,0,1,-129.6099395751953,0)" opacity="1" style="animation-play-state:paused" ></path>
<path d="M2148 869.5 L883.8460838309461 869.5 A15 15 0 0 0 883.8460838309461 900.5 L2148 900.5" fill="#fff" transform="matrix(1,0,0,1,-6.180390357971191,0)" style="animation-play-state:paused" ></path>
<path d="M1027.2843889268277 869.5 L1038.7459420307187 869.5 A15 15 0 0 1 1038.7459420307187 900.5 L1027.2843889268277 900.5 A15 15 0 0 1 1027.2843889268277 869.5" fill="#fff" transform="matrix(1,0,0,1,0,0)" opacity="1" style="animation-play-state:paused" ></path>
<path d="M2148 899.5 L938.9504643463381 899.5 A15 15 0 0 1 938.9504643463381 930.5 L2148 930.5" fill="#fff" transform="matrix(1,0,0,1,19.572837829589844,0)" style="animation-play-state:paused" ></path>
<path d="M1916.6301492522202 899.5 L1955.2602985044405 899.5 A15 15 0 0 1 1955.2602985044405 930.5 L1916.6301492522202 930.5 A15 15 0 0 1 1916.6301492522202 899.5" fill="#000" transform="matrix(1,0,0,1,-1337.295654296875,0)" opacity="0.389571" style="opacity:0.389571;animation-play-state:paused" ></path>
<path d="M2148 929.5 L891.1912463283002 929.5 A15 15 0 0 0 891.1912463283002 960.5 L2148 960.5" fill="#fff" transform="matrix(1,0,0,1,-5.24603271484375,0)" style="animation-play-state:paused" ></path>
<path d="M980.0321135299544 929.5 L998.3079952572725 929.5 A15 15 0 0 1 998.3079952572725 960.5 L980.0321135299544 960.5 A15 15 0 0 1 980.0321135299544 929.5" fill="#fff" transform="matrix(1,0,0,1,0,0)" opacity="0.259714" style="opacity:0.259714;animation-play-state:paused" ></path>
<path d="M2148 959.5 L912.2340250345449 959.5 A15 15 0 0 1 912.2340250345449 990.5 L2148 990.5" fill="#fff" transform="matrix(1,0,0,1,28.362743377685547,0)" style="animation-play-state:paused" ></path>
<path d="M1891.564028395949 959.5 L1905.128056791898 959.5 A15 15 0 0 1 1905.128056791898 990.5 L1891.564028395949 990.5 A15 15 0 0 1 1891.564028395949 959.5" fill="#000" transform="matrix(1,0,0,1,-1848.6729736328125,0)" opacity="0.259714" style="opacity:0.259714;animation-play-state:paused" ></path></g></mask></defs>


<rect x="0" y="0" width="1848" height="979" fill="url(#ldbk-photon-4ciprgpin9t-lg)" mask="url(#ldbk-photon-4ciprgpin9t-mask)" style="animation-play-state:paused" ></rect></g></svg>